<?xml version="1.0" encoding="UTF-8" standalone="no"?>
<svg
   xmlns:dc="http://purl.org/dc/elements/1.1/"
   xmlns:cc="http://creativecommons.org/ns#"
   xmlns:rdf="http://www.w3.org/1999/02/22-rdf-syntax-ns#"
   xmlns:svg="http://www.w3.org/2000/svg"
   xmlns="http://www.w3.org/2000/svg"
   xmlns:sodipodi="http://sodipodi.sourceforge.net/DTD/sodipodi-0.dtd"
   xmlns:inkscape="http://www.inkscape.org/namespaces/inkscape"
   width="2500"
   height="2500"
   viewBox="0 0 192.756 192.756"
   version="1.1"
   id="svg10"
   sodipodi:docname="logo.svg"
   inkscape:version="0.92.4 (5da689c313, 2019-01-14)">
  <metadata
     id="metadata16">
    <rdf:RDF>
      <cc:Work
         rdf:about="">
        <dc:format>image/svg+xml</dc:format>
        <dc:type
           rdf:resource="http://purl.org/dc/dcmitype/StillImage" />
      </cc:Work>
    </rdf:RDF>
  </metadata>
  <defs
     id="defs14" />
  <sodipodi:namedview
     pagecolor="#ffffff"
     bordercolor="#666666"
     borderopacity="1"
     objecttolerance="10"
     gridtolerance="10"
     guidetolerance="10"
     inkscape:pageopacity="0"
     inkscape:pageshadow="2"
     inkscape:window-width="1920"
     inkscape:window-height="1001"
     id="namedview12"
     showgrid="false"
     inkscape:zoom="0.13350176"
     inkscape:cx="2793.7964"
     inkscape:cy="814.80704"
     inkscape:window-x="-9"
     inkscape:window-y="501"
     inkscape:window-maximized="1"
     inkscape:current-layer="g8" />
  <g
     id="g8"
     clip-rule="evenodd"
     fill-rule="evenodd">
    <path
       inkscape:connector-curvature="0"
       style="fill:#295ca7;stroke-width:1"
       d="m 95.326848,16.186578 c 44.115002,0 80.087002,35.974002 80.087002,80.153004 0,44.047998 -35.973,80.087998 -80.087002,80.087998 -44.114,0 -80.153,-36.04 -80.153,-80.087998 -10e-4,-44.180002 36.039,-80.153004 80.153,-80.153004 z"
       id="path4-7" />
    <path
       inkscape:connector-curvature="0"
       style="fill:#ffffff;stroke-width:1"
       d="m 95.326848,26.361579 c 38.468002,0 69.914002,31.444 69.914002,69.978997 0,38.469004 -31.445,69.847004 -69.914002,69.847004 -38.469,0 -69.912,-31.379 -69.912,-69.847998 0,-38.534003 31.443,-69.978003 69.912,-69.978003 z m -46.806,32.363 25.077,65.055001 9.19,-23.764 h 24.092002 l 9.189,23.764 25.34,-65.843001 a 60.408,60.408 0 0 0 -15.887,-13.521999 l -17.592,48.446 H 83.114848 l -17.657,-48.644001 c -6.499,3.742 -12.21,8.666001 -16.937,14.508 z m 102.999002,16.346 -28.557,74.508001 c 19.17,-10.044 32.363,-30.131 32.363,-53.238004 0,-7.483997 -1.312,-14.639997 -3.806,-21.269997 z m -41.03,79.365001 -0.195,-1.51 -15.494002,-40.175 -15.492,40.175 -0.065,1.248 c 5.12,1.443 10.503,2.166 16.083,2.166 5.251002,0 10.306002,-0.656 15.163002,-1.904 z m -43.982002,-5.514 -27.833,-72.538001 c -2.232,6.236001 -3.414,12.932 -3.414,19.956003 0,22.581998 12.604,42.405998 31.247,52.581998 z m 28.819,-112.648001 c 5.251002,0 10.437002,0.657001 15.361002,1.969 l -15.164002,41.948001 -15.23,-42.013001 a 59.721001,59.721001 0 0 1 15.033,-1.904 z"
       id="path6-6" />
  </g>
</svg>
